<?xml version="1.0" standalone="no"?>
<!DOCTYPE svg PUBLIC "-//W3C//DTD SVG 1.1//EN" "http://www.w3.org/Graphics/SVG/1.1/DTD/svg11.dtd" >
<svg xmlns="http://www.w3.org/2000/svg">
<metadata></metadata>
<defs>
<font id="khandblack" horiz-adv-x="1001" >
<font-face units-per-em="2048" ascent="1638" descent="-410" />
<missing-glyph horiz-adv-x="380" />
<glyph horiz-adv-x="0" />
<glyph horiz-adv-x="682" />
<glyph horiz-adv-x="0" />
<glyph horiz-adv-x="0" />
<glyph unicode="&#xd;" horiz-adv-x="0" />
<glyph unicode=" "  horiz-adv-x="380" />
<glyph unicode="&#x09;" horiz-adv-x="380" />
<glyph unicode="&#xa0;" horiz-adv-x="380" />
<glyph unicode="!" horiz-adv-x="675" d="M170 139q0 162 172 162q170 0 170 -162q0 -159 -170 -159q-172 0 -172 159zM174 1419h328l-41 -964h-246z" />
<glyph unicode="&#x22;" horiz-adv-x="1003" d="M172 1022v569h266v-569h-266zM553 1022v569h266v-569h-266z" />
<glyph unicode="#" horiz-adv-x="1288" d="M76 375v241h180l27 187h-146v241h180l54 375h270l-53 -375h190l53 375h271l-53 -375h141v-241h-176l-27 -187h141v-241h-176l-53 -375h-270l53 375h-190l-54 -375h-270l53 375h-145zM526 616h191l26 187h-190z" />
<glyph unicode="$" horiz-adv-x="899" d="M41 958v129q0 256 260 322v121h291v-105q118 -10 188 -39v-294q-123 53 -284 53q-82 0 -111 -26t-29 -72v-31q0 -57 20 -85t85 -63l233 -131q85 -46 126.5 -111t41.5 -165v-127q0 -126 -71.5 -209t-212.5 -115v-119h-291v103q-144 10 -228 43v297q139 -60 314 -60 q92 0 135 27.5t43 73.5v31q0 46 -19 69.5t-73 52.5l-219 119q-95 54 -147 128t-52 183z" />
<glyph unicode="%" horiz-adv-x="1476" d="M72 1081q0 351 295 351t295 -351q0 -354 -295 -354t-295 354zM279 1081q0 -77 18 -119t68 -42t68 42t18 119q0 76 -18 117t-68 41t-68 -42t-18 -116zM305 0l662 1419h204l-661 -1419h-205zM815 342q0 350 295 350t295 -350q0 -354 -295 -354t-295 354zM1022 342 q0 -77 18 -119.5t68 -42.5t68 42.5t18 119.5q0 76 -18 117t-68 41t-68 -42t-18 -116z" />
<glyph unicode="&#x26;" horiz-adv-x="1032" d="M109 354v174q0 177 143 220q-63 21 -101 76.5t-38 142.5v123q0 162 114.5 252t347.5 90q172 0 261 -29v-287q-91 35 -252 35q-94 0 -129 -24t-35 -74v-80q0 -57 21.5 -81t78.5 -24h101v136h294v-136h103v-262h-103v-252q0 -172 -96 -269t-303 -97q-208 0 -307.5 97.5 t-99.5 268.5zM416 362q0 -51 20.5 -77.5t79.5 -26.5t82 26.5t23 77.5v244h-101q-56 0 -80 -23t-24 -75v-146z" />
<glyph unicode="'" horiz-adv-x="634" d="M172 1022v569h287v-569h-287z" />
<glyph unicode="(" horiz-adv-x="729" d="M129 688q0 306 66 582.5t159 474.5h267q-93 -198 -159.5 -474.5t-66.5 -582.5q0 -305 66.5 -581t159.5 -474h-267q-93 198 -159 474t-66 581z" />
<glyph unicode=")" horiz-adv-x="731" d="M106 -367q93 198 159.5 474t66.5 581q0 306 -66.5 582.5t-159.5 474.5h267q93 -198 159 -474.5t66 -582.5q0 -305 -66 -581t-159 -474h-267z" />
<glyph unicode="*" horiz-adv-x="1138" d="M53 1239l88 272l174 -55q52 -16 123 -55q-14 65 -14 133v182h287v-182q0 -66 -15 -135q54 33 125 55l172 57l88 -272l-172 -57q-77 -24 -135 -27q41 -35 92 -102l107 -146l-232 -168l-108 146q-44 61 -66 116q-21 -52 -67 -116l-107 -146l-231 168l106 148q47 61 92 100 q-63 6 -135 29z" />
<glyph unicode="+" horiz-adv-x="1040" d="M94 547v266h281v293h287v-293h280v-266h-280v-293h-287v293h-281z" />
<glyph unicode="," horiz-adv-x="450" d="M31 -272l94 569h154q129 0 129 -117q0 -89 -71.5 -224t-141.5 -228h-164z" />
<glyph unicode="-" horiz-adv-x="638" d="M84 547v266h483v-266h-483z" />
<glyph unicode="." horiz-adv-x="503" d="M78 139q0 162 172 162q170 0 170 -162q0 -159 -170 -159q-172 0 -172 159z" />
<glyph unicode="/" horiz-adv-x="937" d="M76 -367l526 2112h272l-526 -2112h-272z" />
<glyph unicode="0" horiz-adv-x="960" d="M72 346v727q0 171 99.5 269t307.5 98t309 -98t101 -269v-727q0 -171 -100.5 -268.5t-309.5 -97.5q-208 0 -307.5 97.5t-99.5 268.5zM379 358q0 -51 20.5 -76.5t79.5 -25.5t81 25t22 77v703q0 50 -22 76t-81 26t-79.5 -25t-20.5 -77v-703z" />
<glyph unicode="1" horiz-adv-x="657" d="M31 883v338l268 198h266v-1419h-311v1047z" />
<glyph unicode="2" horiz-adv-x="905" d="M72 0v334q0 114 44.5 193t125.5 141l204 176q45 35 60.5 70.5t15.5 103.5v29q0 48 -29 73t-108 25q-157 0 -285 -55v294q128 46 289 46q226 0 335.5 -90.5t109.5 -254.5v-120q0 -197 -152 -312l-184 -155q-77 -65 -95 -99t-18 -102v-27h430v-270h-743z" />
<glyph unicode="3" horiz-adv-x="862" d="M51 31v291q125 -54 285 -54q79 0 112 25.5t33 73.5v118q0 50 -22.5 67t-81.5 17h-160v287h156q56 0 80 24t24 76v97q0 98 -147 98q-150 0 -246 -37v289q89 29 250 29q227 0 339.5 -90.5t112.5 -254.5v-141q0 -88 -37.5 -146t-101.5 -73q144 -14 144 -199v-196 q0 -163 -111 -253.5t-338 -90.5q-186 0 -291 43z" />
<glyph unicode="4" horiz-adv-x="948" d="M20 240v284l394 895h391v-911h133v-268h-133v-240h-289v240h-496zM281 508h247v584z" />
<glyph unicode="5" horiz-adv-x="903" d="M82 35v287q171 -54 301 -54q79 0 112 25t33 74v168q0 50 -26 69t-96 19q-36 0 -73.5 -2.5t-104.5 -7.5t-136 -9v815h699v-286h-394v-240q35 2 111 2q155 0 242.5 -78.5t87.5 -234.5v-250q0 -164 -108.5 -254t-334.5 -90q-167 0 -313 47z" />
<glyph unicode="6" horiz-adv-x="950" d="M72 346v698q0 83 24 150t75.5 121.5t141.5 84.5t213 30q184 0 291 -44v-290q-114 49 -285 49q-80 0 -116.5 -37t-36.5 -98v-95q59 19 168 19q165 0 253.5 -86t88.5 -240v-262q0 -171 -100.5 -268.5t-309.5 -97.5q-208 0 -307.5 97.5t-99.5 268.5zM379 352 q0 -51 20.5 -76.5t79.5 -25.5t81 25t22 77v226q0 50 -25 71t-76 21q-26 0 -51.5 -3t-37.5 -7l-13 -3v-305z" />
<glyph unicode="7" horiz-adv-x="790" d="M10 1135v284h750v-248l-178 -534q-64 -187 -64 -424v-213h-311v240q0 127 19 249t48 199l140 447h-404z" />
<glyph unicode="8" horiz-adv-x="972" d="M72 338v139q0 156 94 232q-94 73 -94 229v143q0 169 101.5 264t311.5 95t313 -95t103 -264v-143q0 -156 -94 -229q94 -76 94 -232v-139q0 -169 -103 -263.5t-313 -94.5t-311.5 94.5t-101.5 263.5zM375 342q0 -49 25 -73.5t85 -24.5q61 0 87 24.5t26 73.5v145 q0 103 -113 103q-60 0 -85 -26.5t-25 -76.5v-145zM375 928q0 -103 110 -103q113 0 113 103v149q0 99 -113 99q-60 0 -85 -24.5t-25 -74.5v-149z" />
<glyph unicode="9" horiz-adv-x="950" d="M61 793v280q0 171 101 269t309 98t308 -98t100 -269v-739q0 -163 -114 -253.5t-341 -90.5q-102 0 -187 14t-122 29v291q125 -54 303 -54q153 0 153 99v120q-62 -24 -184 -24q-163 0 -244.5 86t-81.5 242zM369 829q0 -100 96 -100q26 0 52.5 4.5t40.5 9.5l13 5v319 q0 51 -20.5 76.5t-79.5 25.5t-80.5 -25t-21.5 -77v-238z" />
<glyph unicode=":" horiz-adv-x="526" d="M78 139q0 162 172 162q170 0 170 -162q0 -159 -170 -159q-172 0 -172 159zM78 858q0 162 172 162q170 0 170 -162q0 -160 -170 -160q-172 0 -172 160z" />
<glyph unicode=";" horiz-adv-x="538" d="M31 -272l94 569h154q129 0 129 -117q0 -89 -71.5 -224t-141.5 -228h-164zM78 858q0 162 172 162q170 0 170 -162q0 -160 -170 -160q-172 0 -172 160z" />
<glyph unicode="&#x3c;" horiz-adv-x="1048" d="M68 547v266l872 307v-276l-549 -164l549 -164v-276z" />
<glyph unicode="=" horiz-adv-x="1021" d="M68 338v266h872v-266h-872zM68 756v266h872v-266h-872z" />
<glyph unicode="&#x3e;" horiz-adv-x="1038" d="M82 240v276l551 164l-551 164v276l874 -307v-266z" />
<glyph unicode="?" horiz-adv-x="868" d="M53 1110v291q120 39 285 39q226 0 333 -90t107 -254v-172q0 -168 -71 -249t-242 -81l-14 -139h-252l-15 364h121q99 0 137.5 23t38.5 88v133q0 53 -27 75.5t-106 22.5q-177 0 -295 -51zM158 139q0 162 172 162q170 0 170 -162q0 -159 -170 -159q-172 0 -172 159z" />
<glyph unicode="@" horiz-adv-x="1878" d="M121 584q0 113 10.5 207.5t37 185t68.5 161.5t107 131.5t150.5 100.5t201 62t256.5 22q144 0 260.5 -21.5t201.5 -60.5t148.5 -99t104 -129.5t65.5 -161t34.5 -185.5t9.5 -209q0 -161 -29.5 -274t-87 -178t-132.5 -93.5t-177 -28.5q-209 0 -293 129q-74 -34 -185 -34 q-225 0 -225 231v57q0 96 38.5 154t125.5 92l195 72v121q0 31 -15 45t-63 14q-117 0 -248 -39v199q120 35 248 35q160 0 233.5 -58t73.5 -184v-475q0 -72 31 -103.5t104 -31.5q58 0 90 30.5t47 105.5t15 214q0 95 -2.5 153t-14.5 132.5t-34.5 119t-64 92.5t-101.5 73.5 t-148.5 42t-204.5 16.5q-115 0 -203.5 -17t-148.5 -43.5t-102 -75t-65 -94t-35.5 -119.5t-15.5 -133t-3 -151q0 -91 3.5 -151.5t16 -132.5t36 -118.5t65.5 -93.5t102.5 -73.5t148 -43t201.5 -16.5h189v-240h-191q-143 0 -259 22t-201.5 61.5t-149.5 99.5t-105.5 131t-67 162 t-36 185t-10.5 208zM877 342q0 -25 10.5 -34t46.5 -9q14 0 32 4t29 8l11 4v199l-76 -27q-32 -12 -42.5 -28t-10.5 -53v-64z" />
<glyph unicode="A" d="M10 0l279 1419h428l274 -1419h-293l-59 328h-281l-55 -328h-293zM401 588h193l-98 549z" />
<glyph unicode="B" horiz-adv-x="1009" d="M92 0v1419h486q170 0 259 -76.5t89 -248.5v-133q0 -198 -146 -244q158 -38 158 -246v-145q0 -172 -89 -249t-259 -77h-498zM399 258h140q48 0 72 20t24 68v146q0 48 -24 68t-72 20h-140v-322zM399 852h127q48 0 72.5 20t24.5 68v133q0 48 -24.5 68t-72.5 20h-127v-309z " />
<glyph unicode="C" horiz-adv-x="843" d="M72 334v749q0 163 114 255t342 92q147 0 258 -29v-283q-119 35 -254 35q-83 0 -116 -25.5t-33 -74.5v-688q0 -48 33.5 -73.5t115.5 -25.5q156 0 261 31v-277q-111 -30 -269 -30q-229 0 -340.5 89.5t-111.5 254.5z" />
<glyph unicode="D" horiz-adv-x="1009" d="M92 0v1419h498q166 0 257 -79.5t91 -235.5v-770q0 -334 -330 -334h-516zM399 264h148q49 0 66.5 25t17.5 69v734q0 36 -17 55.5t-67 19.5h-148v-903z" />
<glyph unicode="E" horiz-adv-x="862" d="M92 0v1419h719v-266h-412v-301h357v-266h-357v-320h412v-266h-719z" />
<glyph unicode="F" horiz-adv-x="825" d="M92 0v1419h703v-268h-392v-350h361v-275h-361v-526h-311z" />
<glyph unicode="G" horiz-adv-x="958" d="M72 334v743q0 162 123.5 257.5t353.5 95.5q170 0 289 -39v-291q-122 47 -285 47q-84 0 -127 -29.5t-43 -77.5v-673q0 -49 30.5 -75t110.5 -26q40 0 74 17v479h299v-686q-76 -41 -157.5 -63.5t-211.5 -22.5q-229 0 -342.5 90t-113.5 254z" />
<glyph unicode="H" horiz-adv-x="1089" d="M92 0v1419h311v-583h283v583h311v-1419h-311v561h-283v-561h-311z" />
<glyph unicode="I" horiz-adv-x="495" d="M92 0v1419h311v-1419h-311z" />
<glyph unicode="J" horiz-adv-x="505" d="M-47 -305l61 211q48 165 68 274t20 244v995h312v-993q0 -167 -14 -270.5t-58 -249.5l-63 -211h-326z" />
<glyph unicode="K" horiz-adv-x="995" d="M92 0v1419h307v-639l234 639h328l-261 -686l285 -733h-342l-244 678v-678h-307z" />
<glyph unicode="L" horiz-adv-x="792" d="M92 0v1419h311v-1161h379v-258h-690z" />
<glyph unicode="M" horiz-adv-x="1329" d="M92 0v1419h316l256 -725l256 725h317v-1419h-297v494q0 102 10 206.5t20 158.5l9 54l-197 -553h-237l-197 553q39 -190 39 -419v-494h-295z" />
<glyph unicode="N" horiz-adv-x="1089" d="M92 0v1419h303l187 -475q129 -329 161 -471q-8 33 -17.5 88t-20.5 195.5t-11 306.5v356h303v-1419h-295l-190 487q-32 82 -60.5 158.5t-46.5 130t-31 93t-21 65.5t-9 29q7 -23 17 -76t22 -195.5t12 -314.5v-377h-303z" />
<glyph unicode="O" d="M72 346v727q0 169 109 268t319 99q211 0 320.5 -99.5t109.5 -267.5v-727q0 -168 -109.5 -267t-320.5 -99q-210 0 -319 99t-109 267zM379 362q0 -102 121 -102q123 0 123 102v695q0 48 -30.5 75t-92.5 27q-121 0 -121 -102v-695z" />
<glyph unicode="P" horiz-adv-x="962" d="M92 0v1419h463q167 0 261.5 -80t94.5 -235v-379q0 -155 -94.5 -235t-261.5 -80h-154v-410h-309zM401 676h115q46 0 67 20.5t21 65.5v305q0 45 -21 65.5t-67 20.5h-115v-477z" />
<glyph unicode="Q" d="M72 346v727q0 169 109 268t319 99q211 0 320.5 -99.5t109.5 -267.5v-727q0 -183 -127 -280l237 -244h-362l-152 158h-26q-210 0 -319 99t-109 267zM379 362q0 -102 121 -102q123 0 123 102v695q0 48 -30.5 75t-92.5 27q-121 0 -121 -102v-695z" />
<glyph unicode="R" horiz-adv-x="987" d="M92 0v1419h463q167 0 261.5 -79t94.5 -234v-262q0 -124 -40 -199.5t-128 -107.5l224 -537h-338l-191 512h-39v-512h-307zM399 756h121q46 0 65 20t19 72v231q0 45 -20.5 61.5t-63.5 16.5h-121v-401z" />
<glyph unicode="S" horiz-adv-x="899" d="M41 958v129q0 163 110.5 253t337.5 90q184 0 291 -44v-294q-123 53 -284 53q-82 0 -111 -26t-29 -72v-31q0 -57 20 -85t85 -63l233 -131q85 -46 126.5 -111t41.5 -165v-127q0 -165 -122.5 -254.5t-362.5 -89.5q-102 0 -190.5 15.5t-127.5 31.5v297q139 -60 314 -60 q92 0 135 27.5t43 73.5v31q0 46 -19 69.5t-73 52.5l-219 119q-95 54 -147 128t-52 183z" />
<glyph unicode="T" horiz-adv-x="843" d="M10 1153v266h824v-266h-256v-1153h-312v1153h-256z" />
<glyph unicode="U" horiz-adv-x="1013" d="M82 346v1073h307v-1057q0 -102 117 -102q119 0 119 102v1057h307v-1073q0 -169 -108 -267.5t-318 -98.5t-317 98.5t-107 267.5z" />
<glyph unicode="V" horiz-adv-x="993" d="M10 1419h314l104 -600q15 -84 33.5 -222t29.5 -235l11 -96q38 367 67 549l95 604h319l-270 -1419h-428z" />
<glyph unicode="W" horiz-adv-x="1214" d="M10 1419h269l65 -467q12 -84 21 -182t11 -154l3 -55q22 201 45 391l57 467h260l54 -467l43 -377q9 205 34 377l68 467h264l-188 -1419h-275l-84 561q-11 73 -22.5 170.5t-16.5 158.5l-6 62q-16 -227 -41 -391l-86 -561h-292z" />
<glyph unicode="X" horiz-adv-x="958" d="M10 0l303 707l-303 712h332l141 -391l133 391h332l-305 -712l305 -707h-334l-131 387l-139 -387h-334z" />
<glyph unicode="Y" horiz-adv-x="987" d="M0 1419h315l68 -215q82 -257 115 -446q43 215 116 450l66 211h307l-338 -979v-440h-311v440z" />
<glyph unicode="Z" horiz-adv-x="870" d="M41 0v260l446 899h-438v260h772v-248l-459 -911h467v-260h-788z" />
<glyph unicode="[" horiz-adv-x="765" d="M180 -375v2155h494v-240h-246v-1673h246v-242h-494z" />
<glyph unicode="\" horiz-adv-x="997" d="M80 1780h285l555 -2155h-287z" />
<glyph unicode="]" horiz-adv-x="765" d="M90 -133h246v1673h-246v240h494v-2155h-494v242z" />
<glyph unicode="^" horiz-adv-x="903" d="M0 819l279 690h344l276 -690h-305l-143 477l-146 -477h-305z" />
<glyph unicode="_" horiz-adv-x="1157" d="M20 0h1117l-2 -246h-1115v246z" />
<glyph unicode="`" horiz-adv-x="716" d="M201 1530h225l90 -236h-162z" />
<glyph unicode="a" horiz-adv-x="894" d="M39 293v69q0 136 60.5 210.5t195.5 111.5l223 57v113q-2 53 -30.5 74.5t-104.5 21.5q-82 0 -163 -14.5t-118 -28.5v273q115 39 314 39q216 0 306.5 -91t90.5 -276v-852h-289v88q-59 -92 -209 -92q-145 0 -210.5 71t-65.5 226zM342 293q0 -70 72 -70q58 0 102 23v248 l-94 -25q-51 -13 -65.5 -36t-14.5 -83v-57z" />
<glyph unicode="b" horiz-adv-x="948" d="M92 0v1530h309v-346q88 30 217 30q116 0 187.5 -64.5t71.5 -193.5v-655q0 -153 -85.5 -227t-228.5 -74h-471zM401 285h82q80 0 80 65v531q0 49 -59 49q-65 0 -103 -23v-622z" />
<glyph unicode="c" horiz-adv-x="770" d="M72 346v516q0 357 401 357q139 0 256 -31v-285q-113 33 -203 33q-76 0 -110.5 -21.5t-34.5 -78.5v-463q0 -58 34.5 -79.5t110.5 -21.5q90 0 203 33v-285q-113 -30 -256 -30q-401 0 -401 356z" />
<glyph unicode="d" horiz-adv-x="946" d="M72 270v572q0 171 94 268.5t287 97.5h90v322h311v-1530h-301v86q-26 -33 -81 -63.5t-136 -30.5q-130 0 -197 73t-67 205zM381 326q0 -54 57 -54q65 0 107 25v637h-68q-96 0 -96 -103v-505z" />
<glyph unicode="e" horiz-adv-x="884" d="M72 344v555q0 156 96 243t291 87q375 0 375 -330v-416h-465v-114q0 -62 33.5 -87.5t125.5 -25.5q137 0 277 41v-270q-2 0 -20 -5t-21.5 -6t-21.5 -5t-25 -5.5t-25.5 -4.5t-30.5 -4.5t-32.5 -3.5t-39 -3t-42 -1.5t-49.5 -0.5q-221 0 -323.5 90t-102.5 266zM369 719h180 v176q0 38 -24 58t-66 20t-66 -20t-24 -58v-176z" />
<glyph unicode="f" horiz-adv-x="604" d="M10 967v241h117v15q0 165 89.5 255.5t275.5 90.5q47 0 112 -10v-238q-32 4 -61 4q-56 0 -80.5 -24t-24.5 -74v-19h166v-241h-166v-967h-311v967h-117z" />
<glyph unicode="g" horiz-adv-x="933" d="M31 63q57 -44 159.5 -78t212.5 -34h43q108 0 147.5 15.5t39.5 49.5v11q0 22 -15.5 31.5t-54.5 9.5h-125q-149 0 -222 43t-73 139v33q0 59 28 99t87 50q-211 69 -211 299v176q0 155 99 238.5t300 83.5q137 0 224 -37q23 76 80.5 117t140.5 41h33v-275h-72q-17 0 -45 -4 q39 -65 39 -164v-176q0 -151 -94 -235t-285 -88q-53 0 -53 -46q0 -26 18 -35.5t64 -9.5h112q157 0 234.5 -62.5t77.5 -195.5v-51q0 -149 -108.5 -232t-324.5 -83h-75q-131 0 -232 27t-149 63v280zM354 733q0 -41 21.5 -60.5t70.5 -19.5q93 0 93 80v172q0 80 -93 80 q-49 0 -70.5 -19.5t-21.5 -60.5v-172z" />
<glyph unicode="h" horiz-adv-x="948" d="M92 0v1530h309v-342q85 29 174 29q134 0 212.5 -62t78.5 -199v-956h-313v881q0 49 -55 49q-62 0 -97 -21v-909h-309z" />
<glyph unicode="i" horiz-adv-x="493" d="M76 1403q0 162 172 162q170 0 170 -162q0 -160 -170 -160q-172 0 -172 160zM92 0v1176h309v-1176h-309z" />
<glyph unicode="j" horiz-adv-x="493" d="M-39 -23q32 -4 47 -4q84 0 84 93v1110h309v-1110q0 -169 -92.5 -274t-273.5 -105q-47 0 -74 8v282zM76 1403q0 162 172 162q170 0 170 -162q0 -160 -170 -160q-172 0 -172 160z" />
<glyph unicode="k" horiz-adv-x="888" d="M92 0v1530h299v-823l152 501h305l-174 -571l205 -637h-324l-164 594v-594h-299z" />
<glyph unicode="l" horiz-adv-x="493" d="M92 0v1530h309v-1530h-309z" />
<glyph unicode="m" horiz-adv-x="1413" d="M92 0v1208h291v-53q105 59 227 59t191 -69q132 69 274 69q115 0 185.5 -64.5t70.5 -193.5v-956h-313v881q0 25 -12 37t-41 12q-56 0 -101 -27q2 -4 2 -20v-883h-313v881q0 25 -12 37t-41 12q-54 0 -99 -27v-903h-309z" />
<glyph unicode="n" horiz-adv-x="948" d="M92 0v1208h291v-53q105 59 227 59q115 0 185.5 -64.5t70.5 -193.5v-956h-313v881q0 25 -12 37t-41 12q-54 0 -99 -27v-903h-309z" />
<glyph unicode="o" horiz-adv-x="921" d="M72 309v590q0 156 97 243t292 87t292 -87t97 -243v-590q0 -156 -96.5 -242.5t-292.5 -86.5t-292.5 86.5t-96.5 242.5zM375 319q0 -36 22.5 -56.5t63.5 -20.5t63.5 20.5t22.5 56.5v570q0 36 -22.5 57t-63.5 21t-63.5 -21t-22.5 -57v-570z" />
<glyph unicode="p" horiz-adv-x="948" d="M92 -305v1513h291v-53q38 22 104 40.5t134 18.5q115 0 185.5 -64.5t70.5 -193.5v-655q0 -153 -85.5 -227t-228.5 -74h-162v-305h-309zM401 285h82q80 0 80 65v531q0 49 -59 49q-58 0 -103 -27v-618z" />
<glyph unicode="q" horiz-adv-x="946" d="M72 305v537q0 171 94 268.5t287 97.5h401v-1513h-309v332q-78 -27 -187 -27q-286 0 -286 305zM381 340q0 -64 68 -64q43 0 96 21v637h-68q-96 0 -96 -105v-489z" />
<glyph unicode="r" horiz-adv-x="659" d="M92 0v1208h291v-82q82 51 125.5 69.5t105.5 18.5h35v-284h-47q-113 0 -201 -41v-889h-309z" />
<glyph unicode="s" horiz-adv-x="794" d="M41 16v277q99 -29 219 -29q76 0 118 10.5t55 26t13 41.5v18q0 31 -21 51.5t-95 69.5l-140 92q-69 46 -107 107.5t-38 155.5v53q0 164 99 247t321 83q148 0 250 -31v-273q-29 9 -98.5 20t-127.5 11q-85 0 -115 -19t-30 -59v-16q0 -25 15.5 -42.5t66.5 -51.5l166 -111 q78 -51 120 -112.5t42 -153.5v-51q0 -340 -447 -340q-155 0 -266 26z" />
<glyph unicode="t" horiz-adv-x="653" d="M10 948v260h123l94 209h201v-209h182v-260h-182v-614q0 -74 78 -74q32 0 61 7t43 15l13 7v-275q-70 -32 -183 -32q-174 0 -247.5 81.5t-73.5 237.5v647h-109z" />
<glyph unicode="u" horiz-adv-x="956" d="M82 270v938h313v-876q0 -53 58 -53q62 0 102 24v905h309v-1208h-291v55q-98 -55 -227 -55t-196.5 69.5t-67.5 200.5z" />
<glyph unicode="v" horiz-adv-x="897" d="M10 1208h309l70 -372q29 -155 45.5 -303t18.5 -219l2 -70q4 248 63 585l66 379h303l-254 -1208h-361z" />
<glyph unicode="w" horiz-adv-x="1277" d="M10 1208h322l63 -809l107 809h280l113 -813l59 813h314l-187 -1208h-346l-47 432l-43 359l-43 -357l-51 -434h-344z" />
<glyph unicode="x" horiz-adv-x="837" d="M10 0l244 610l-242 598h334l74 -303l69 303h336l-250 -598l252 -610h-338l-69 322l-74 -322h-336z" />
<glyph unicode="y" horiz-adv-x="917" d="M20 1208h304l69 -372q29 -155 47 -303t22 -219l3 -70q11 248 70 585l65 379h297l-287 -1513h-299l58 305h-107z" />
<glyph unicode="z" horiz-adv-x="745" d="M41 0v188l326 762h-320v258h651v-184l-317 -766h324v-258h-664z" />
<glyph unicode="{" horiz-adv-x="843" d="M111 557v264h10q67 0 104 30.5t37 90.5v444q0 162 85.5 260.5t238.5 98.5h114v-264h-92q-80 0 -80 -80v-383q0 -70 -8.5 -121.5t-29 -95.5t-58.5 -71.5t-94 -39.5q110 -21 150 -94t40 -215v-406q0 -79 80 -79h92v-265h-114q-153 0 -238.5 98.5t-85.5 260.5v446 q0 60 -37 90.5t-104 30.5h-10z" />
<glyph unicode="|" horiz-adv-x="458" d="M125 -389v2191h205v-2191h-205z" />
<glyph unicode="}" horiz-adv-x="837" d="M131 -104h92q80 0 80 79v406q0 141 40.5 214.5t150.5 94.5q-56 12 -94.5 39.5t-59 71.5t-29 95.5t-8.5 121.5v383q0 80 -80 80h-92v264h115q153 0 238 -98.5t85 -260.5v-444q0 -60 37 -90.5t105 -30.5h10v-264h-10q-68 0 -105 -30.5t-37 -90.5v-446q0 -162 -85 -260.5 t-238 -98.5h-115v265z" />
<glyph unicode="~" horiz-adv-x="1280" d="M51 655q0 79 24.5 137t66.5 90t98.5 45.5t120 7t131.5 -29.5l290 -98q48 -15 86 -15.5t58 28.5t10 85h274q13 -53 13 -123q0 -79 -24.5 -137t-66.5 -90t-98.5 -45.5t-120 -7t-131.5 29.5l-290 99q-48 15 -86 15t-58 -29t-10 -85h-277q-10 60 -10 123z" />
<glyph unicode="&#xa2;" horiz-adv-x="776" d="M76 346v516q0 281 250 340v139h286v-129q55 -7 121 -24v-285q-113 33 -203 33q-76 0 -110.5 -21.5t-34.5 -78.5v-463q0 -58 34.5 -79.5t110.5 -21.5q90 0 203 33v-285q-64 -19 -133 -24v-133h-287v145q-237 65 -237 338z" />
<glyph unicode="&#xa3;" horiz-adv-x="1064" d="M113 0v260q64 21 96.5 63t32.5 128v137h-129v262h129v166q0 206 116.5 310t331.5 104q151 0 234 -27v-285q-98 31 -213 31q-85 0 -123.5 -38.5t-38.5 -119.5v-141h280v-262h-280v-90q0 -93 -21.5 -142t-72.5 -90h491v-266h-833z" />
<glyph unicode="&#xa5;" horiz-adv-x="1150" d="M82 1419h315l115 -372l68 -234l67 234l115 372h307l-176 -508h154v-239h-236l-41 -115h277v-240h-316v-317h-311v317h-330v240h289l-39 115h-250v239h166z" />
<glyph unicode="&#xa8;" horiz-adv-x="716" d="M66 1411q0 55 26.5 84t91.5 29q64 0 91.5 -29t27.5 -84q0 -111 -119 -111q-65 0 -91.5 28.5t-26.5 82.5zM416 1411q0 55 27 84t92 29q64 0 91 -29t27 -84q0 -53 -27 -82t-91 -29q-65 0 -92 28.5t-27 82.5z" />
<glyph unicode="&#xa9;" horiz-adv-x="1449" d="M72 686q0 89 8.5 163.5t29 146.5t53.5 128t83.5 104t118 79.5t158.5 49t202 17.5q158 0 274.5 -34t188.5 -91.5t115 -147.5t59 -188t16 -227q0 -125 -16.5 -223t-61 -187.5t-116.5 -148t-188 -93t-271 -34.5q-157 0 -273 34t-188 92t-116 147.5t-60 187.5t-16 225z M293 686q0 -101 5 -159.5t28.5 -127.5t68.5 -105t127.5 -60.5t202.5 -24.5q67 0 122 7.5t96.5 20.5t74 35t55 45t38 57.5t24.5 65.5t14 75.5t6.5 81.5t1.5 89q0 74 -2 117t-10.5 100.5t-25.5 90t-48 69.5t-76.5 56t-113 31.5t-156.5 12.5q-102 0 -176.5 -14.5t-121 -48.5 t-74.5 -69.5t-40.5 -98.5t-16 -112.5t-3.5 -133.5zM463 563v252q0 118 66.5 179t211.5 61q45 0 85 -5.5t58 -10.5l17 -5v-182q-91 14 -156 14q-47 0 -60 -13.5t-13 -43.5v-240q0 -30 13 -43.5t60 -13.5q78 0 156 12v-180q-58 -20 -160 -20q-145 0 -211.5 60.5t-66.5 178.5z " />
<glyph unicode="&#xab;" horiz-adv-x="1310" d="M123 659l248 375h307l-250 -375l250 -374h-307zM602 659l248 375h307l-250 -375l250 -374h-307z" />
<glyph unicode="&#xad;" horiz-adv-x="638" d="M84 547v266h483v-266h-483z" />
<glyph unicode="&#xae;" horiz-adv-x="1241" d="M195 1081q0 93 12.5 166t45 139.5t86 110t138.5 69t199 25.5q115 0 200.5 -25t138 -67.5t84.5 -109t44 -140t12 -168.5q0 -93 -12 -165.5t-44.5 -139t-85.5 -110.5t-138 -69.5t-199 -25.5q-115 0 -200.5 25.5t-138.5 68.5t-85.5 109.5t-44.5 139.5t-12 167zM332 1081 q0 -56 2 -92t9 -80t21 -71.5t39 -56t61.5 -44t89.5 -25.5t122 -10q53 0 97 6t77 16t58.5 28t43.5 36t30 45.5t19 51.5t11 60t5 65t1 71q0 45 -1 73t-4 66t-9.5 61t-18.5 51.5t-29.5 45.5t-43 35t-59 27.5t-78 15.5t-99.5 6q-50 0 -91 -4.5t-73 -14.5t-57.5 -21t-44 -30 t-32 -36.5t-22 -44.5t-13.5 -49t-7.5 -56t-3 -59.5t-0.5 -65.5zM494 797v577h174q99 0 155 -41t56 -143q0 -108 -68 -156l92 -237h-145l-66 202h-24h-39v-202h-135zM629 1110h26q54 0 72 15t18 65q0 47 -18 60.5t-61 13.5h-37v-154z" />
<glyph unicode="&#xb4;" horiz-adv-x="716" d="M201 1294l90 236h225l-154 -236h-161z" />
<glyph unicode="&#xb8;" horiz-adv-x="716" d="M201 -244q23 -10 69 -10q31 0 48.5 12.5t17.5 34.5q0 46 -66 49h-22l37 170h131l-21 -92q42 -4 80.5 -37.5t38.5 -99.5q0 -81 -56 -127.5t-151 -46.5q-51 0 -106 12v135z" />
<glyph unicode="&#xbb;" horiz-adv-x="1304" d="M123 285l250 374l-250 375h307l248 -375l-248 -374h-307zM602 285l250 374l-250 375h307l248 -375l-248 -374h-307z" />
<glyph unicode="&#xc1;" d="M10 0l279 1419h428l274 -1419h-293l-59 328h-281l-55 -328h-293zM401 588h193l-98 549zM406 1499l90 236h225l-154 -236h-161z" />
<glyph unicode="&#xc4;" d="M10 0l279 1419h428l274 -1419h-293l-59 328h-281l-55 -328h-293zM203 1616q0 55 27 84t92 29q64 0 91 -29t27 -84q0 -53 -27 -82t-91 -29q-65 0 -92 28.5t-27 82.5zM401 588h193l-98 549zM553 1616q0 55 27 84t92 29q64 0 91.5 -29t27.5 -84q0 -111 -119 -111 q-65 0 -92 28.5t-27 82.5z" />
<glyph unicode="&#xc9;" horiz-adv-x="862" d="M92 0v1419h719v-266h-412v-301h357v-266h-357v-320h412v-266h-719zM362 1499l91 236h225l-154 -236h-162z" />
<glyph unicode="&#xcd;" horiz-adv-x="495" d="M92 0v1419h311v-1419h-311zM160 1499l90 236h225l-153 -236h-162z" />
<glyph unicode="&#xd3;" d="M72 346v727q0 169 109 268t319 99q211 0 320.5 -99.5t109.5 -267.5v-727q0 -168 -109.5 -267t-320.5 -99q-210 0 -319 99t-109 267zM379 362q0 -102 121 -102q123 0 123 102v695q0 48 -30.5 75t-92.5 27q-121 0 -121 -102v-695zM436 1499l90 236h226l-154 -236h-162z" />
<glyph unicode="&#xd4;" d="M72 346v727q0 169 109 268t319 99q211 0 320.5 -99.5t109.5 -267.5v-727q0 -168 -109.5 -267t-320.5 -99q-210 0 -319 99t-109 267zM272 1499l123 236h219l123 -236h-149l-82 111l-84 -111h-150zM379 362q0 -102 121 -102q123 0 123 102v695q0 48 -30.5 75t-92.5 27 q-121 0 -121 -102v-695z" />
<glyph unicode="&#xd6;" d="M72 346v727q0 169 109 268t319 99q211 0 320.5 -99.5t109.5 -267.5v-727q0 -168 -109.5 -267t-320.5 -99q-210 0 -319 99t-109 267zM207 1616q0 55 27 84t92 29q64 0 91 -29t27 -84q0 -53 -27 -82t-91 -29q-65 0 -92 28.5t-27 82.5zM379 362q0 -102 121 -102 q123 0 123 102v695q0 48 -30.5 75t-92.5 27q-121 0 -121 -102v-695zM557 1616q0 55 27 84t92 29q64 0 91.5 -29t27.5 -84q0 -111 -119 -111q-65 0 -92 28.5t-27 82.5z" />
<glyph unicode="&#xda;" horiz-adv-x="1013" d="M82 346v1073h307v-1057q0 -102 117 -102q119 0 119 102v1057h307v-1073q0 -169 -108 -267.5t-318 -98.5t-317 98.5t-107 267.5zM424 1499l90 236h225l-153 -236h-162z" />
<glyph unicode="&#xdc;" horiz-adv-x="1013" d="M82 346v1073h307v-1057q0 -102 117 -102q119 0 119 102v1057h307v-1073q0 -169 -108 -267.5t-318 -98.5t-317 98.5t-107 267.5zM211 1616q0 55 27 84t92 29q64 0 91.5 -29t27.5 -84q0 -111 -119 -111q-65 0 -92 28.5t-27 82.5zM561 1616q0 55 27 84t92 29q64 0 91.5 -29 t27.5 -84q0 -111 -119 -111q-65 0 -92 28.5t-27 82.5z" />
<glyph unicode="&#xdd;" horiz-adv-x="987" d="M0 1419h315l68 -215q82 -257 115 -446q43 215 116 450l66 211h307l-338 -979v-440h-311v440zM410 1501l90 236h225l-154 -236h-161z" />
<glyph unicode="&#xdf;" horiz-adv-x="1165" d="M92 0v1069q0 203 111 311.5t321 108.5q197 0 314.5 -98t117.5 -271q0 -56 -15.5 -110.5t-33.5 -89t-33.5 -69t-15.5 -56.5v-23q0 -14 6 -27.5t23.5 -30.5t28 -26.5t40 -33t39.5 -31.5q135 -113 135 -242v-68q0 -158 -99 -238.5t-312 -80.5q-30 0 -56.5 1t-43.5 2.5 t-37.5 4.5t-30 4.5t-30.5 5.5t-29 6v273q101 -31 188 -31q66 0 100.5 9t45 25t10.5 46v16q0 10 -3.5 20.5t-12.5 22t-17.5 20.5t-24.5 22.5t-26.5 22t-31 24.5t-30.5 24q-67 55 -106 108t-39 117v41q0 51 26.5 110.5t53 116t26.5 99.5q0 115 -127 115q-73 0 -108 -42 t-35 -135v-1042h-289z" />
<glyph unicode="&#xe1;" horiz-adv-x="894" d="M39 293v69q0 136 60.5 210.5t195.5 111.5l223 57v113q-2 53 -30.5 74.5t-104.5 21.5q-82 0 -163 -14.5t-118 -28.5v273q115 39 314 39q216 0 306.5 -91t90.5 -276v-852h-289v88q-59 -92 -209 -92q-145 0 -210.5 71t-65.5 226zM340 1294l90 236h225l-153 -236h-162z M342 293q0 -70 72 -70q58 0 102 23v248l-94 -25q-51 -13 -65.5 -36t-14.5 -83v-57z" />
<glyph unicode="&#xe4;" horiz-adv-x="894" d="M39 293v69q0 136 60.5 210.5t195.5 111.5l223 57v113q-2 53 -30.5 74.5t-104.5 21.5q-82 0 -163 -14.5t-118 -28.5v273q115 39 314 39q216 0 306.5 -91t90.5 -276v-852h-289v88q-59 -92 -209 -92q-145 0 -210.5 71t-65.5 226zM137 1411q0 55 27 84t92 29q64 0 91.5 -29 t27.5 -84q0 -111 -119 -111q-65 0 -92 28.5t-27 82.5zM342 293q0 -70 72 -70q58 0 102 23v248l-94 -25q-51 -13 -65.5 -36t-14.5 -83v-57zM487 1411q0 55 27 84t92 29q64 0 91.5 -29t27.5 -84q0 -111 -119 -111q-65 0 -92 28.5t-27 82.5z" />
<glyph unicode="&#xe9;" horiz-adv-x="884" d="M72 344v555q0 156 96 243t291 87q375 0 375 -330v-416h-465v-114q0 -62 33.5 -87.5t125.5 -25.5q137 0 277 41v-270q-2 0 -20 -5t-21.5 -6t-21.5 -5t-25 -5.5t-25.5 -4.5t-30.5 -4.5t-32.5 -3.5t-39 -3t-42 -1.5t-49.5 -0.5q-221 0 -323.5 90t-102.5 266zM369 719h180 v176q0 38 -24 58t-66 20t-66 -20t-24 -58v-176zM369 1294l90 236h225l-154 -236h-161z" />
<glyph unicode="&#xed;" horiz-adv-x="493" d="M92 0v1176h309v-1176h-309zM160 1294l90 236h225l-153 -236h-162z" />
<glyph unicode="&#xf3;" horiz-adv-x="921" d="M72 309v590q0 156 97 243t292 87t292 -87t97 -243v-590q0 -156 -96.5 -242.5t-292.5 -86.5t-292.5 86.5t-96.5 242.5zM375 319q0 -36 22.5 -56.5t63.5 -20.5t63.5 20.5t22.5 56.5v570q0 36 -22.5 57t-63.5 21t-63.5 -21t-22.5 -57v-570zM387 1294l90 236h225l-153 -236 h-162z" />
<glyph unicode="&#xf4;" horiz-adv-x="921" d="M72 309v590q0 156 97 243t292 87t292 -87t97 -243v-590q0 -156 -96.5 -242.5t-292.5 -86.5t-292.5 86.5t-96.5 242.5zM233 1294l123 236h219l123 -236h-149l-82 111l-84 -111h-150zM375 319q0 -36 22.5 -56.5t63.5 -20.5t63.5 20.5t22.5 56.5v570q0 36 -22.5 57t-63.5 21 t-63.5 -21t-22.5 -57v-570z" />
<glyph unicode="&#xf6;" horiz-adv-x="921" d="M72 309v590q0 156 97 243t292 87t292 -87t97 -243v-590q0 -156 -96.5 -242.5t-292.5 -86.5t-292.5 86.5t-96.5 242.5zM174 1411q0 55 27 84t92 29q64 0 91.5 -29t27.5 -84q0 -111 -119 -111q-65 0 -92 28.5t-27 82.5zM375 319q0 -36 22.5 -56.5t63.5 -20.5t63.5 20.5 t22.5 56.5v570q0 36 -22.5 57t-63.5 21t-63.5 -21t-22.5 -57v-570zM524 1411q0 55 27 84t92 29q64 0 91.5 -29t27.5 -84q0 -111 -119 -111q-65 0 -92 28.5t-27 82.5z" />
<glyph unicode="&#xfa;" horiz-adv-x="956" d="M82 270v938h313v-876q0 -53 58 -53q62 0 102 24v905h309v-1208h-291v55q-98 -55 -227 -55t-196.5 69.5t-67.5 200.5zM399 1294l90 236h226l-154 -236h-162z" />
<glyph unicode="&#xfc;" horiz-adv-x="956" d="M82 270v938h313v-876q0 -53 58 -53q62 0 102 24v905h309v-1208h-291v55q-98 -55 -227 -55t-196.5 69.5t-67.5 200.5zM180 1411q0 55 27 84t92 29q64 0 91.5 -29t27.5 -84q0 -111 -119 -111q-65 0 -92 28.5t-27 82.5zM530 1411q0 55 27 84t92 29q64 0 91.5 -29t27.5 -84 q0 -111 -119 -111q-65 0 -92 28.5t-27 82.5z" />
<glyph unicode="&#xfd;" horiz-adv-x="917" d="M20 1208h304l69 -372q29 -155 47 -303t22 -219l3 -70q11 248 70 585l65 379h297l-287 -1513h-299l58 305h-107zM365 1294l90 236h225l-154 -236h-161z" />
<glyph unicode="&#x10c;" horiz-adv-x="843" d="M72 334v749q0 163 114 255t342 92q147 0 258 -29v-283q-119 35 -254 35q-83 0 -116 -25.5t-33 -74.5v-688q0 -48 33.5 -73.5t115.5 -25.5q156 0 261 31v-277q-111 -30 -269 -30q-229 0 -340.5 89.5t-111.5 254.5zM266 1735h150l84 -111l82 111h149l-123 -236h-219z" />
<glyph unicode="&#x10d;" horiz-adv-x="770" d="M72 346v516q0 357 401 357q139 0 256 -31v-285q-113 33 -203 33q-76 0 -110.5 -21.5t-34.5 -78.5v-463q0 -58 34.5 -79.5t110.5 -21.5q90 0 203 33v-285q-113 -30 -256 -30q-401 0 -401 356zM238 1530h149l84 -111l82 111h149l-122 -236h-220z" />
<glyph unicode="&#x10e;" horiz-adv-x="1009" d="M92 0v1419h498q166 0 257 -79.5t91 -235.5v-770q0 -334 -330 -334h-516zM248 1735h149l84 -111l82 111h150l-123 -236h-219zM399 264h148q49 0 66.5 25t17.5 69v734q0 36 -17 55.5t-67 19.5h-148v-903z" />
<glyph unicode="&#x10f;" horiz-adv-x="1003" d="M72 270v572q0 171 94 268.5t287 97.5h90v322h311v-1530h-301v86q-26 -33 -81 -63.5t-136 -30.5q-130 0 -197 73t-67 205zM381 326q0 -54 57 -54q65 0 107 25v637h-68q-96 0 -96 -103v-505zM932 1212l51 318h94q72 0 72 -66q0 -50 -40.5 -126.5t-78.5 -125.5h-98z" />
<glyph unicode="&#x11a;" horiz-adv-x="862" d="M92 0v1419h719v-266h-412v-301h357v-266h-357v-320h412v-266h-719zM209 1735h149l84 -111l82 111h150l-123 -236h-219z" />
<glyph unicode="&#x11b;" horiz-adv-x="884" d="M72 344v555q0 156 96 243t291 87q375 0 375 -330v-416h-465v-114q0 -62 33.5 -87.5t125.5 -25.5q137 0 277 41v-270q-2 0 -20 -5t-21.5 -6t-21.5 -5t-25 -5.5t-25.5 -4.5t-30.5 -4.5t-32.5 -3.5t-39 -3t-42 -1.5t-49.5 -0.5q-221 0 -323.5 90t-102.5 266zM227 1530h150 l84 -111l82 111h149l-123 -236h-219zM369 719h180v176q0 38 -24 58t-66 20t-66 -20t-24 -58v-176z" />
<glyph unicode="&#x139;" horiz-adv-x="792" d="M92 0v1419h311v-1161h379v-258h-690zM160 1499l90 236h225l-153 -236h-162z" />
<glyph unicode="&#x13a;" horiz-adv-x="493" d="M92 0v1530h309v-1530h-309zM166 1602l90 235h225l-153 -235h-162z" />
<glyph unicode="&#x13d;" horiz-adv-x="792" d="M92 0v1419h311v-1161h379v-258h-690zM475 1212l51 318h95q71 0 71 -66q0 -50 -40.5 -126.5t-78.5 -125.5h-98z" />
<glyph unicode="&#x13e;" horiz-adv-x="493" d="M92 0v1530h309v-1530h-309zM475 1212l51 318h95q71 0 71 -66q0 -50 -40.5 -126.5t-78.5 -125.5h-98z" />
<glyph unicode="&#x147;" horiz-adv-x="1089" d="M92 0v1419h303l187 -475q129 -329 161 -471q-8 33 -17.5 88t-20.5 195.5t-11 306.5v356h303v-1419h-295l-190 487q-32 82 -60.5 158.5t-46.5 130t-31 93t-21 65.5t-9 29q7 -23 17 -76t22 -195.5t12 -314.5v-377h-303zM295 1735h149l84 -111l82 111h150l-123 -236h-219z " />
<glyph unicode="&#x148;" horiz-adv-x="948" d="M92 0v1208h291v-53q105 59 227 59q115 0 185.5 -64.5t70.5 -193.5v-956h-313v881q0 25 -12 37t-41 12q-54 0 -99 -27v-903h-309zM227 1530h150l84 -111l82 111h149l-123 -236h-219z" />
<glyph unicode="&#x154;" horiz-adv-x="987" d="M92 0v1419h463q167 0 261.5 -79t94.5 -234v-262q0 -124 -40 -199.5t-128 -107.5l224 -537h-338l-191 512h-39v-512h-307zM379 1499l90 236h225l-153 -236h-162zM399 756h121q46 0 65 20t19 72v231q0 45 -20.5 61.5t-63.5 16.5h-121v-401z" />
<glyph unicode="&#x155;" horiz-adv-x="659" d="M92 0v1208h291v-82q82 51 125.5 69.5t105.5 18.5h35v-284h-47q-113 0 -201 -41v-889h-309zM324 1294l90 236h225l-154 -236h-161z" />
<glyph unicode="&#x158;" horiz-adv-x="987" d="M92 0v1419h463q167 0 261.5 -79t94.5 -234v-262q0 -124 -40 -199.5t-128 -107.5l224 -537h-338l-191 512h-39v-512h-307zM229 1735h150l84 -111l82 111h149l-123 -236h-219zM399 756h121q46 0 65 20t19 72v231q0 45 -20.5 61.5t-63.5 16.5h-121v-401z" />
<glyph unicode="&#x159;" horiz-adv-x="659" d="M92 0v1208h291v-82q82 51 125.5 69.5t105.5 18.5h35v-284h-47q-113 0 -201 -41v-889h-309zM143 1530h150l84 -111l82 111h149l-123 -236h-219z" />
<glyph unicode="&#x160;" horiz-adv-x="899" d="M41 958v129q0 163 110.5 253t337.5 90q184 0 291 -44v-294q-123 53 -284 53q-82 0 -111 -26t-29 -72v-31q0 -57 20 -85t85 -63l233 -131q85 -46 126.5 -111t41.5 -165v-127q0 -165 -122.5 -254.5t-362.5 -89.5q-102 0 -190.5 15.5t-127.5 31.5v297q139 -60 314 -60 q92 0 135 27.5t43 73.5v31q0 46 -19 69.5t-73 52.5l-219 119q-95 54 -147 128t-52 183zM207 1735h149l84 -111l82 111h150l-123 -236h-219z" />
<glyph unicode="&#x161;" horiz-adv-x="794" d="M41 16v277q99 -29 219 -29q76 0 118 10.5t55 26t13 41.5v18q0 31 -21 51.5t-95 69.5l-140 92q-69 46 -107 107.5t-38 155.5v53q0 164 99 247t321 83q148 0 250 -31v-273q-29 9 -98.5 20t-127.5 11q-85 0 -115 -19t-30 -59v-16q0 -25 15.5 -42.5t66.5 -51.5l166 -111 q78 -51 120 -112.5t42 -153.5v-51q0 -340 -447 -340q-155 0 -266 26zM199 1530h149l84 -111l82 111h150l-123 -236h-219z" />
<glyph unicode="&#x164;" horiz-adv-x="843" d="M10 1153v266h824v-266h-256v-1153h-312v1153h-256zM186 1735h150l84 -111l82 111h149l-123 -236h-219z" />
<glyph unicode="&#x165;" horiz-adv-x="653" d="M10 948v260h123l94 209h201v-209h182v-260h-182v-614q0 -74 78 -74q32 0 61 7t43 15l13 7v-275q-70 -32 -183 -32q-174 0 -247.5 81.5t-73.5 237.5v647h-109zM539 1305l71 428h115q96 0 96 -88q0 -66 -54.5 -170.5t-104.5 -169.5h-123z" />
<glyph unicode="&#x16e;" horiz-adv-x="1013" d="M82 346v1073h307v-1057q0 -102 117 -102q119 0 119 102v1057h307v-1073q0 -169 -108 -267.5t-318 -98.5t-317 98.5t-107 267.5zM340 1616q0 70 44.5 116t121.5 46q79 0 122.5 -45.5t43.5 -116.5t-43.5 -117.5t-122.5 -46.5q-77 0 -121.5 47t-44.5 117zM449 1616 q0 -28 15.5 -44t41.5 -16t41.5 16t15.5 44q0 25 -15.5 41t-41.5 16t-41.5 -16t-15.5 -41z" />
<glyph unicode="&#x16f;" horiz-adv-x="956" d="M82 270v938h313v-876q0 -53 58 -53q62 0 102 24v905h309v-1208h-291v55q-98 -55 -227 -55t-196.5 69.5t-67.5 200.5zM297 1411q0 70 44.5 116t121.5 46q79 0 122.5 -45.5t43.5 -116.5t-43.5 -117.5t-122.5 -46.5q-77 0 -121.5 47t-44.5 117zM406 1411q0 -28 15.5 -43.5 t41.5 -15.5t41.5 15.5t15.5 43.5q0 25 -15.5 41t-41.5 16t-41.5 -16t-15.5 -41z" />
<glyph unicode="&#x17d;" horiz-adv-x="870" d="M41 0v260l446 899h-438v260h772v-248l-459 -911h467v-260h-788zM193 1735h149l84 -111l82 111h149l-122 -236h-220z" />
<glyph unicode="&#x17e;" horiz-adv-x="745" d="M41 0v188l326 762h-320v258h651v-184l-317 -766h324v-258h-664zM141 1530h150l84 -111l82 111h149l-123 -236h-219z" />
<glyph unicode="&#x2c6;" horiz-adv-x="716" d="M125 1294l123 236h219l123 -236h-150l-82 111l-84 -111h-149z" />
<glyph unicode="&#x2da;" horiz-adv-x="716" d="M193 1411q0 70 44 116t121 46q79 0 122.5 -45.5t43.5 -116.5t-43.5 -117.5t-122.5 -46.5q-77 0 -121 47t-44 117zM301 1411q0 -28 15.5 -43.5t41.5 -15.5t42 16t16 43q0 25 -16 41t-42 16t-41.5 -16t-15.5 -41z" />
<glyph unicode="&#x2dc;" horiz-adv-x="716" d="M57 1296v4q2 103 47.5 162.5t135.5 59.5q46 0 88.5 -20t74 -40t50.5 -20q24 0 33.5 17.5t9.5 56.5v8h161v-11q-2 -100 -47.5 -157.5t-134.5 -57.5q-42 0 -85 20t-76 40t-52 20q-24 0 -33.5 -17t-9.5 -58v-7h-162z" />
<glyph unicode="&#x2000;" horiz-adv-x="918" />
<glyph unicode="&#x2001;" horiz-adv-x="1837" />
<glyph unicode="&#x2002;" horiz-adv-x="918" />
<glyph unicode="&#x2003;" horiz-adv-x="1837" />
<glyph unicode="&#x2004;" horiz-adv-x="612" />
<glyph unicode="&#x2005;" horiz-adv-x="459" />
<glyph unicode="&#x2006;" horiz-adv-x="306" />
<glyph unicode="&#x2007;" horiz-adv-x="306" />
<glyph unicode="&#x2008;" horiz-adv-x="229" />
<glyph unicode="&#x2009;" horiz-adv-x="367" />
<glyph unicode="&#x200a;" horiz-adv-x="102" />
<glyph unicode="&#x2010;" horiz-adv-x="638" d="M84 547v266h483v-266h-483z" />
<glyph unicode="&#x2011;" horiz-adv-x="638" d="M84 547v266h483v-266h-483z" />
<glyph unicode="&#x2012;" horiz-adv-x="638" d="M84 547v266h483v-266h-483z" />
<glyph unicode="&#x2013;" horiz-adv-x="1280" d="M84 547v266h1077v-266h-1077z" />
<glyph unicode="&#x2014;" horiz-adv-x="1771" d="M84 547v266h1589v-266h-1589z" />
<glyph unicode="&#x2018;" horiz-adv-x="419" d="M51 1110q0 78 60 189.5t127 201.5h131l-86 -508h-107q-125 0 -125 117z" />
<glyph unicode="&#x2019;" horiz-adv-x="419" d="M51 993l86 508h107q125 0 125 -117q0 -78 -60 -189.5t-127 -201.5h-131z" />
<glyph unicode="&#x201a;" horiz-adv-x="419" d="M51 -211l86 508h107q125 0 125 -117q0 -78 -60 -189.5t-127 -201.5h-131z" />
<glyph unicode="&#x201c;" horiz-adv-x="755" d="M51 1110q0 78 60 189.5t127 201.5h118l-86 -508h-94q-125 0 -125 117zM399 1110q0 78 60 189.5t127 201.5h119l-87 -508h-94q-125 0 -125 117z" />
<glyph unicode="&#x201d;" horiz-adv-x="755" d="M51 993l86 508h94q125 0 125 -117q0 -78 -59.5 -190t-126.5 -201h-119zM399 993l86 508h95q125 0 125 -117q0 -78 -60 -189.5t-127 -201.5h-119z" />
<glyph unicode="&#x201e;" horiz-adv-x="755" d="M51 -211l86 508h94q125 0 125 -117q0 -78 -59.5 -190t-126.5 -201h-119zM399 -211l86 508h95q125 0 125 -117q0 -78 -60 -189.5t-127 -201.5h-119z" />
<glyph unicode="&#x2022;" horiz-adv-x="516" d="M49 692q0 205 205 205t205 -205t-205 -205t-205 205z" />
<glyph unicode="&#x2026;" horiz-adv-x="1511" d="M66 143q0 72 34 113t119 41q154 0 154 -154q0 -153 -154 -153q-85 0 -119 40.5t-34 112.5zM569 143q0 154 154 154t154 -154q0 -153 -154 -153q-85 0 -119.5 40.5t-34.5 112.5zM1073 143q0 154 154 154q153 0 153 -154q0 -153 -153 -153q-85 0 -119.5 40.5t-34.5 112.5z " />
<glyph unicode="&#x202f;" horiz-adv-x="367" />
<glyph unicode="&#x2039;" horiz-adv-x="1032" d="M233 659l248 375h307l-249 -375l249 -374h-307z" />
<glyph unicode="&#x203a;" horiz-adv-x="966" d="M233 285l250 374l-250 375h308l247 -375l-247 -374h-308z" />
<glyph unicode="&#x205f;" horiz-adv-x="459" />
<glyph unicode="&#x20ac;" horiz-adv-x="966" d="M41 473v201h106v82h-106v200h106v127q0 163 114.5 255t342.5 92q147 0 258 -29v-283q-119 35 -254 35q-83 0 -116 -25.5t-33 -74.5v-97h205v-200h-205v-82h205v-201h-205v-108q0 -48 33.5 -73.5t115.5 -25.5q155 0 260 31v-277q-111 -30 -268 -30q-229 0 -341 90 t-112 254v139h-106z" />
<glyph unicode="&#x2122;" horiz-adv-x="1331" d="M195 1364v113h419v-113h-133v-446h-149v446h-137zM657 918v559h226l57 -312l12 -88l11 88l57 312h225v-559h-137v321l31 217l-127 -538h-121l-127 538l31 -217v-321h-138z" />
<glyph unicode="&#x25fc;" horiz-adv-x="1208" d="M0 0v1208h1208v-1208h-1208z" />
</font>
</defs>
</svg>
